<svg width="60" height="55" viewBox="0 0 60 55" fill="none" xmlns="http://www.w3.org/2000/svg">
<path d="M36.6 32.6V35.9C36.6 36.1917 36.4841 36.4715 36.2778 36.6778C36.0715 36.8841 35.7917 37 35.5 37H24.5C24.2083 37 23.9285 36.8841 23.7222 36.6778C23.5159 36.4715 23.4 36.1917 23.4 35.9V32.6H20.1C19.8083 32.6 19.5285 32.4841 19.3222 32.2778C19.1159 32.0715 19 31.7917 19 31.5V26C19 19.9247 23.9247 15 30 15C36.0753 15 41 19.9247 41 26V31.5C41 31.7917 40.8841 32.0715 40.6778 32.2778C40.4715 32.4841 40.1917 32.6 39.9 32.6H36.6ZM25.05 28.2C25.2667 28.2 25.4812 28.1573 25.6814 28.0744C25.8816 27.9915 26.0635 27.8699 26.2167 27.7167C26.3699 27.5635 26.4915 27.3816 26.5744 27.1814C26.6573 26.9812 26.7 26.7667 26.7 26.55C26.7 26.3333 26.6573 26.1188 26.5744 25.9186C26.4915 25.7184 26.3699 25.5365 26.2167 25.3833C26.0635 25.2301 25.8816 25.1085 25.6814 25.0256C25.4812 24.9427 25.2667 24.9 25.05 24.9C24.6124 24.9 24.1927 25.0738 23.8833 25.3833C23.5738 25.6927 23.4 26.1124 23.4 26.55C23.4 26.9876 23.5738 27.4073 23.8833 27.7167C24.1927 28.0262 24.6124 28.2 25.05 28.2V28.2ZM34.95 28.2C35.1667 28.2 35.3812 28.1573 35.5814 28.0744C35.7816 27.9915 35.9635 27.8699 36.1167 27.7167C36.2699 27.5635 36.3915 27.3816 36.4744 27.1814C36.5573 26.9812 36.6 26.7667 36.6 26.55C36.6 26.3333 36.5573 26.1188 36.4744 25.9186C36.3915 25.7184 36.2699 25.5365 36.1167 25.3833C35.9635 25.2301 35.7816 25.1085 35.5814 25.0256C35.3812 24.9427 35.1667 24.9 34.95 24.9C34.5124 24.9 34.0927 25.0738 33.7833 25.3833C33.4738 25.6927 33.3 26.1124 33.3 26.55C33.3 26.9876 33.4738 27.4073 33.7833 27.7167C34.0927 28.0262 34.5124 28.2 34.95 28.2V28.2Z" fill="black"/>
<line x1="14" y1="11.5" x2="47" y2="11.5" stroke="black" stroke-width="3"/>
<line x1="14" y1="39.5" x2="47" y2="39.5" stroke="black" stroke-width="3"/>
</svg>
