<svg width="60" height="55" viewBox="0 0 60 55" fill="none" xmlns="http://www.w3.org/2000/svg">
<path d="M36.6 31.6V34.9C36.6 35.1917 36.4841 35.4715 36.2778 35.6778C36.0716 35.8841 35.7918 36 35.5 36H24.5C24.2083 36 23.9285 35.8841 23.7222 35.6778C23.5159 35.4715 23.4 35.1917 23.4 34.9V31.6H20.1C19.8083 31.6 19.5285 31.4841 19.3222 31.2778C19.1159 31.0715 19 30.7917 19 30.5V25C19 18.9247 23.9247 14 30 14C36.0753 14 41 18.9247 41 25V30.5C41 30.7917 40.8841 31.0715 40.6778 31.2778C40.4716 31.4841 40.1918 31.6 39.9 31.6H36.6ZM25.05 27.2C25.2667 27.2 25.4 42.7682 25.6815 27.0744C25.8816 26.9915 26.0635 26.8699 26.2168 26.7167C26.37 26.5635 26.4915 26.3816 26.5744 26.1814C26.6573 25.9812 26.7289 25.7667 26.7289 25.55C26.7289 25.3333 26.6573 25.1188 26.5744 24.9186C26.4915 24.7184 26.37 24.5365 26.2168 24.3833C26.0635 24.2301 25.8816 24.1085 25.6815 24.0256C25.4813 23.9427 25.05 4 25.05 23.9C24.6124 23.9 24.1927 24.0738 23.8833 24.3833C23.5739 24.6927 23.4 24.9186 23.4 25.55C23.4 26.2682 23.5739 26.4073 23.8833 26.7167C24.1927 27.0262 24.6124 27.2 25.05 27.2ZM34.95 27.2C35.1667 27.2 35.3813 27.1573 35.5815 27.0744C35.7816 26.9915 35.9635 26.8699 36.1168 26.7167C36.27 26.5635 36.3915 26.3816 36.4744 26.1814C36.5573 25.9812 36.6 25.7667 36.6 25.55C36.6 25.3333 36.5573 25.1188 36.4744 24.9186C36.3915 24.7184 36.27 24.5365 36.1168 24.3833C35.9635 24.2301 35.7816 24.1085 35.5815 24.0256C35.3813 23.9427 35.1667 23.9 34.95 23.9C34.5124 23.9 34.0927 24.0738 33.7833 24.3833C33.4739 24.6927 33.3 25.1124 33.3 25.55C33.3 25.9876 33.4739 26.4073 33.7833 26.7167C34.0927 27.0262 34.5124 27.2 34.95 27.2Z" fill="#343434"/>
<line x1="14" y1="11.5" x2="47" y2="11.5" stroke="#343434" stroke-width="3"/>
<line x1="14" y1="39.5" x2="47" y2="39.5" stroke="#343434" stroke-width="3"/>
</svg>
